<?xml version="1.0" ?><!DOCTYPE svg  PUBLIC '-//W3C//DTD SVG 1.0//EN'  'http://www.w3.org/TR/2001/REC-SVG-20010904/DTD/svg10.dtd'><svg height="110px" style="enable-background:new 0 0 110 110;" version="1.0" viewBox="0 0 110 110" width="110px" xml:space="preserve" xmlns="http://www.w3.org/2000/svg" xmlns:xlink="http://www.w3.org/1999/xlink"><g id="Artboard"/><g id="Multicolor"><circle cx="55" cy="55" r="55" style="fill:#25B7D3;"/><g><path d="M65,85c0,1.105-0.895,2-2,2H47c-1.105,0-2-0.895-2-2V57c0-1.105,0.895-2,2-2h16    c1.105,0,2,0.895,2,2V85z" style="fill:#3E3E3F;"/><path d="M87,85c0,1.105-0.895,2-2,2H69c-1.105,0-2-0.895-2-2V57c0-1.105,0.895-2,2-2h16    c1.105,0,2,0.895,2,2V85z" style="fill:#3E3E3F;"/><path d="M43,85c0,1.105-0.895,2-2,2H25c-1.105,0-2-0.895-2-2V57c0-1.105,0.895-2,2-2h16    c1.105,0,2,0.895,2,2V85z" style="fill:#3E3E3F;"/><circle cx="38.5" cy="59.5" r="1.5" style="fill:#FA5655;"/><circle cx="33.5" cy="59.5" r="1.5" style="fill:#F99134;"/><circle cx="28.5" cy="59.5" r="1.5" style="fill:#FACB1B;"/><path d="M76,41.562c0-3.954-2.442-7.332-5.898-8.723c-2.738-6.696-7.162-9.417-12.579-9.417    c-5.092,0-9.506,2.902-11.67,7.147c-3.443-1.466-7.325,0.969-7.468,4.74C35.251,36.414,33,39.393,33,42.906    c0,4.453,3.61,8.062,8.062,8.062h26.875C67.937,50.969,76,49.473,76,41.562z" style="fill:#F0F1F1;"/><path d="M57.523,23.422c-5.092,0-9.506,2.902-11.67,7.147c-3.443-1.466-7.325,0.969-7.468,4.74    C35.251,36.414,33,39.393,33,42.906c0,4.228,3.257,7.69,7.398,8.029l24.923-24.924C63.083,24.225,60.45,23.422,57.523,23.422z" style="fill:#FFFFFF;"/><circle cx="60.5" cy="59.5" r="1.5" style="fill:#FA5655;"/><circle cx="55.5" cy="59.5" r="1.5" style="fill:#F99134;"/><circle cx="50.5" cy="59.5" r="1.5" style="fill:#FACB1B;"/><circle cx="82.5" cy="59.5" r="1.5" style="fill:#FA5655;"/><circle cx="77.5" cy="59.5" r="1.5" style="fill:#F99134;"/><circle cx="72.5" cy="59.5" r="1.5" style="fill:#FACB1B;"/><rect height="2" style="fill:#818284;" width="20" x="23" y="80"/><rect height="2" style="fill:#818284;" width="20" x="23" y="75"/><rect height="2" style="fill:#818284;" width="20" x="23" y="70"/><rect height="2" style="fill:#818284;" width="20" x="23" y="65"/><rect height="2" style="fill:#818284;" width="20" x="45" y="80"/><rect height="2" style="fill:#818284;" width="20" x="45" y="75"/><rect height="2" style="fill:#818284;" width="20" x="45" y="70"/><rect height="2" style="fill:#818284;" width="20" x="45" y="65"/><rect height="2" style="fill:#818284;" width="20" x="67" y="80"/><rect height="2" style="fill:#818284;" width="20" x="67" y="75"/><rect height="2" style="fill:#818284;" width="20" x="67" y="70"/><rect height="2" style="fill:#818284;" width="20" x="67" y="65"/></g></g></svg>